<?xml version="1.0" encoding="utf-8"?>
<!-- Generated by IcoMoon.io -->
<svg version="1.1" 
  xmlns="http://www.w3.org/2000/svg" 
  xmlns:xlink="http://www.w3.org/1999/xlink" width="752" height="112" viewBox="0 0 752 112">
  <svg id="icon-calendar-check-o" width="26" height="28" viewBox="0 0 26 28" x="0" y="0">
    <path d="M20.359 15.062l-8 8c-0.203 0.187-0.516 0.187-0.719 0l-4.5-4.5c-0.187-0.203-0.187-0.516 0-0.703l0.719-0.719c0.187-0.187 0.5-0.187 0.703 0l3.437 3.437 6.937-6.937c0.203-0.187 0.516-0.187 0.703 0l0.719 0.719c0.187 0.187 0.187 0.5 0 0.703zM2 26h22v-16h-22v16zM8 7v-4.5c0-0.281-0.219-0.5-0.5-0.5h-1c-0.281 0-0.5 0.219-0.5 0.5v4.5c0 0.281 0.219 0.5 0.5 0.5h1c0.281 0 0.5-0.219 0.5-0.5zM20 7v-4.5c0-0.281-0.219-0.5-0.5-0.5h-1c-0.281 0-0.5 0.219-0.5 0.5v4.5c0 0.281 0.219 0.5 0.5 0.5h1c0.281 0 0.5-0.219 0.5-0.5zM26 6v20c0 1.094-0.906 2-2 2h-22c-1.094 0-2-0.906-2-2v-20c0-1.094 0.906-2 2-2h2v-1.5c0-1.375 1.125-2.5 2.5-2.5h1c1.375 0 2.5 1.125 2.5 2.5v1.5h6v-1.5c0-1.375 1.125-2.5 2.5-2.5h1c1.375 0 2.5 1.125 2.5 2.5v1.5h2c1.094 0 2 0.906 2 2z"></path>
  </svg>
  <svg id="icon-calendar-times-o" width="26" height="28" viewBox="0 0 26 28" x="44" y="0">
    <path d="M17.359 21.641l-0.719 0.719c-0.187 0.187-0.5 0.187-0.703 0l-2.938-2.953-2.938 2.953c-0.203 0.187-0.516 0.187-0.703 0l-0.719-0.719c-0.187-0.187-0.187-0.5 0-0.703l2.953-2.938-2.953-2.938c-0.187-0.203-0.187-0.516 0-0.703l0.719-0.719c0.187-0.187 0.5-0.187 0.703 0l2.938 2.938 2.938-2.938c0.203-0.187 0.516-0.187 0.703 0l0.719 0.719c0.187 0.187 0.187 0.5 0 0.703l-2.938 2.938 2.938 2.938c0.187 0.203 0.187 0.516 0 0.703zM2 26h22v-16h-22v16zM8 7v-4.5c0-0.281-0.219-0.5-0.5-0.5h-1c-0.281 0-0.5 0.219-0.5 0.5v4.5c0 0.281 0.219 0.5 0.5 0.5h1c0.281 0 0.5-0.219 0.5-0.5zM20 7v-4.5c0-0.281-0.219-0.5-0.5-0.5h-1c-0.281 0-0.5 0.219-0.5 0.5v4.5c0 0.281 0.219 0.5 0.5 0.5h1c0.281 0 0.5-0.219 0.5-0.5zM26 6v20c0 1.094-0.906 2-2 2h-22c-1.094 0-2-0.906-2-2v-20c0-1.094 0.906-2 2-2h2v-1.5c0-1.375 1.125-2.5 2.5-2.5h1c1.375 0 2.5 1.125 2.5 2.5v1.5h6v-1.5c0-1.375 1.125-2.5 2.5-2.5h1c1.375 0 2.5 1.125 2.5 2.5v1.5h2c1.094 0 2 0.906 2 2z"></path>
  </svg>
  <svg id="icon-calendar-minus-o" width="26" height="28" viewBox="0 0 26 28" x="88" y="0">
    <path d="M18 17.5v1c0 0.281-0.219 0.5-0.5 0.5h-9c-0.281 0-0.5-0.219-0.5-0.5v-1c0-0.281 0.219-0.5 0.5-0.5h9c0.281 0 0.5 0.219 0.5 0.5zM2 26h22v-16h-22v16zM8 7v-4.5c0-0.281-0.219-0.5-0.5-0.5h-1c-0.281 0-0.5 0.219-0.5 0.5v4.5c0 0.281 0.219 0.5 0.5 0.5h1c0.281 0 0.5-0.219 0.5-0.5zM20 7v-4.5c0-0.281-0.219-0.5-0.5-0.5h-1c-0.281 0-0.5 0.219-0.5 0.5v4.5c0 0.281 0.219 0.5 0.5 0.5h1c0.281 0 0.5-0.219 0.5-0.5zM26 6v20c0 1.094-0.906 2-2 2h-22c-1.094 0-2-0.906-2-2v-20c0-1.094 0.906-2 2-2h2v-1.5c0-1.375 1.125-2.5 2.5-2.5h1c1.375 0 2.5 1.125 2.5 2.5v1.5h6v-1.5c0-1.375 1.125-2.5 2.5-2.5h1c1.375 0 2.5 1.125 2.5 2.5v1.5h2c1.094 0 2 0.906 2 2z"></path>
  </svg>
  <svg id="icon-calendar-plus-o" width="26" height="28" viewBox="0 0 26 28" x="132" y="0">
    <path d="M24 4c1.094 0 2 0.906 2 2v20c0 1.094-0.906 2-2 2h-22c-1.094 0-2-0.906-2-2v-20c0-1.094 0.906-2 2-2h2v-1.5c0-1.375 1.125-2.5 2.5-2.5h1c1.375 0 2.5 1.125 2.5 2.5v1.5h6v-1.5c0-1.375 1.125-2.5 2.5-2.5h1c1.375 0 2.5 1.125 2.5 2.5v1.5h2zM18 2.5v4.5c0 0.281 0.219 0.5 0.5 0.5h1c0.281 0 0.5-0.219 0.5-0.5v-4.5c0-0.281-0.219-0.5-0.5-0.5h-1c-0.281 0-0.5 0.219-0.5 0.5zM6 2.5v4.5c0 0.281 0.219 0.5 0.5 0.5h1c0.281 0 0.5-0.219 0.5-0.5v-4.5c0-0.281-0.219-0.5-0.5-0.5h-1c-0.281 0-0.5 0.219-0.5 0.5zM24 26v-16h-22v16h22zM14 17h3.5c0.281 0 0.5 0.219 0.5 0.5v1c0 0.281-0.219 0.5-0.5 0.5h-3.5v3.5c0 0.281-0.219 0.5-0.5 0.5h-1c-0.281 0-0.5-0.219-0.5-0.5v-3.5h-3.5c-0.281 0-0.5-0.219-0.5-0.5v-1c0-0.281 0.219-0.5 0.5-0.5h3.5v-3.5c0-0.281 0.219-0.5 0.5-0.5h1c0.281 0 0.5 0.219 0.5 0.5v3.5z"></path>
  </svg>
  <svg id="icon-calendar-o" width="26" height="28" viewBox="0 0 26 28" x="176" y="0">
    <path d="M2 26h22v-16h-22v16zM8 7v-4.5c0-0.281-0.219-0.5-0.5-0.5h-1c-0.281 0-0.5 0.219-0.5 0.5v4.5c0 0.281 0.219 0.5 0.5 0.5h1c0.281 0 0.5-0.219 0.5-0.5zM20 7v-4.5c0-0.281-0.219-0.5-0.5-0.5h-1c-0.281 0-0.5 0.219-0.5 0.5v4.5c0 0.281 0.219 0.5 0.5 0.5h1c0.281 0 0.5-0.219 0.5-0.5zM26 6v20c0 1.094-0.906 2-2 2h-22c-1.094 0-2-0.906-2-2v-20c0-1.094 0.906-2 2-2h2v-1.5c0-1.375 1.125-2.5 2.5-2.5h1c1.375 0 2.5 1.125 2.5 2.5v1.5h6v-1.5c0-1.375 1.125-2.5 2.5-2.5h1c1.375 0 2.5 1.125 2.5 2.5v1.5h2c1.094 0 2 0.906 2 2z"></path>
  </svg>
  <svg id="icon-calendar" width="26" height="28" viewBox="0 0 26 28" x="220" y="0">
    <path d="M2 26h4.5v-4.5h-4.5v4.5zM7.5 26h5v-4.5h-5v4.5zM2 20.5h4.5v-5h-4.5v5zM7.5 20.5h5v-5h-5v5zM2 14.5h4.5v-4.5h-4.5v4.5zM13.5 26h5v-4.5h-5v4.5zM7.5 14.5h5v-4.5h-5v4.5zM19.5 26h4.5v-4.5h-4.5v4.5zM13.5 20.5h5v-5h-5v5zM8 7v-4.5c0-0.266-0.234-0.5-0.5-0.5h-1c-0.266 0-0.5 0.234-0.5 0.5v4.5c0 0.266 0.234 0.5 0.5 0.5h1c0.266 0 0.5-0.234 0.5-0.5zM19.5 20.5h4.5v-5h-4.5v5zM13.5 14.5h5v-4.5h-5v4.5zM19.5 14.5h4.5v-4.5h-4.5v4.5zM20 7v-4.5c0-0.266-0.234-0.5-0.5-0.5h-1c-0.266 0-0.5 0.234-0.5 0.5v4.5c0 0.266 0.234 0.5 0.5 0.5h1c0.266 0 0.5-0.234 0.5-0.5zM26 6v20c0 1.094-0.906 2-2 2h-22c-1.094 0-2-0.906-2-2v-20c0-1.094 0.906-2 2-2h2v-1.5c0-1.375 1.125-2.5 2.5-2.5h1c1.375 0 2.5 1.125 2.5 2.5v1.5h6v-1.5c0-1.375 1.125-2.5 2.5-2.5h1c1.375 0 2.5 1.125 2.5 2.5v1.5h2c1.094 0 2 0.906 2 2z"></path>
  </svg>
  <svg id="icon-phone" width="22" height="28" viewBox="0 0 22 28" x="264" y="0">
    <path d="M22 19.375c0 0.562-0.25 1.656-0.484 2.172-0.328 0.766-1.203 1.266-1.906 1.656-0.922 0.5-1.859 0.797-2.906 0.797-1.453 0-2.766-0.594-4.094-1.078-0.953-0.344-1.875-0.766-2.734-1.297-2.656-1.641-5.859-4.844-7.5-7.5-0.531-0.859-0.953-1.781-1.297-2.734-0.484-1.328-1.078-2.641-1.078-4.094 0-1.047 0.297-1.984 0.797-2.906 0.391-0.703 0.891-1.578 1.656-1.906 0.516-0.234 1.609-0.484 2.172-0.484 0.109 0 0.219 0 0.328 0.047 0.328 0.109 0.672 0.875 0.828 1.188 0.5 0.891 0.984 1.797 1.5 2.672 0.25 0.406 0.719 0.906 0.719 1.391 0 0.953-2.828 2.344-2.828 3.187 0 0.422 0.391 0.969 0.609 1.344 1.578 2.844 3.547 4.813 6.391 6.391 0.375 0.219 0.922 0.609 1.344 0.609 0.844 0 2.234-2.828 3.187-2.828 0.484 0 0.984 0.469 1.391 0.719 0.875 0.516 1.781 1 2.672 1.5 0.313 0.156 1.078 0.5 1.188 0.828 0.047 0.109 0.047 0.219 0.047 0.328z"></path>
  </svg>
  <svg id="icon-date-add" width="20" height="20" viewBox="0 0 20 20" x="0" y="44">
    <path d="M15 2h2c1.105 0 2 0.895 2 2v0 14c0 1.105-0.895 2-2 2v0h-14c-1.105 0-2-0.895-2-2v0-14c0-1.1 0.9-2 2-2h2v-2h2v2h6v-2h2v2zM3 6v12h14v-12h-14zM9 11v-2h2v2h2v2h-2v2h-2v-2h-2v-2h2z"></path>
  </svg>
  <svg id="icon-display" width="20" height="20" viewBox="0 0 20 20" x="36" y="44">
    <path d="M0 1.25v12.5h20v-12.5h-20zM18.75 12.5h-17.5v-10h17.5v10zM13.125 15h-6.25l-0.625 2.5-1.25 1.25h10l-1.25-1.25z"></path>
  </svg>
  <svg id="icon-bubble" width="20" height="20" viewBox="0 0 20 20" x="72" y="44">
    <path d="M10 1.25c5.523 0 10 3.638 10 8.125s-4.477 8.125-10 8.125c-0.53 0-1.051-0.034-1.559-0.099-2.148 2.148-4.712 2.533-7.191 2.59v-0.526c1.339-0.656 2.5-1.85 2.5-3.216 0-0.191-0.015-0.378-0.042-0.56-2.262-1.49-3.708-3.765-3.708-6.315 0-4.487 4.477-8.125 10-8.125z"></path>
  </svg>
  <svg id="icon-bubbles2" width="23" height="20" viewBox="0 0 23 20" x="108" y="44">
    <path d="M9.375 0v0c5.178 0 9.375 3.397 9.375 7.587s-4.197 7.587-9.375 7.587c-0.497 0-0.985-0.032-1.462-0.092-2.014 2.006-4.339 2.365-6.663 2.418v-0.491c1.255-0.612 2.266-1.728 2.266-3.003 0-0.178-0.014-0.352-0.040-0.523-2.12-1.391-3.476-3.515-3.476-5.896 0-4.19 4.197-7.587 9.375-7.587zM19.453 17.006c0 1.093 0.709 2.049 1.797 2.574v0.421c-2.014-0.045-3.863-0.354-5.608-2.073-0.413 0.052-0.836 0.079-1.267 0.079-1.865 0-3.582-0.503-4.953-1.348 2.826-0.010 5.493-0.915 7.516-2.552 1.020-0.825 1.824-1.793 2.391-2.878 0.601-1.15 0.906-2.375 0.906-3.641 0-0.204-0.009-0.407-0.025-0.609 1.417 1.171 2.29 2.766 2.29 4.525 0 2.041-1.175 3.862-3.012 5.054-0.022 0.146-0.034 0.296-0.034 0.449z"></path>
  </svg>
  <svg id="icon-users" width="23" height="20" viewBox="0 0 23 20" x="144" y="44">
    <path d="M15 15.051v-1.031c1.377-0.776 2.5-2.71 2.5-4.645 0-3.107 0-5.625-3.75-5.625s-3.75 2.518-3.75 5.625c0 1.935 1.123 3.869 2.5 4.645v1.031c-4.24 0.347-7.5 2.43-7.5 4.949h17.5c0-2.519-3.26-4.602-7.5-4.949z"></path>
    <path d="M6.391 15.534c1.080-0.706 2.423-1.243 3.902-1.571-0.294-0.347-0.561-0.735-0.791-1.153-0.594-1.079-0.908-2.267-0.908-3.435 0-1.681 0-3.268 0.598-4.566 0.58-1.26 1.624-2.041 3.11-2.334-0.33-1.494-1.21-2.476-3.551-2.476-3.75 0-3.75 2.518-3.75 5.625 0 1.935 1.123 3.869 2.5 4.645v1.031c-4.24 0.347-7.5 2.43-7.5 4.949h5.449c0.284-0.252 0.598-0.492 0.941-0.716z"></path>
  </svg>
  <svg id="icon-pie-chart" width="20" height="20" viewBox="0 0 20 20" x="180" y="44">
    <path d="M8.75 11.25v-8.75c-4.832 0-8.75 3.918-8.75 8.75s3.917 8.75 8.75 8.75 8.75-3.918 8.75-8.75c0-1.407-0.333-2.736-0.923-3.914l-7.827 3.914zM17.827 4.836c-1.437-2.867-4.402-4.836-7.827-4.836v8.75l7.827-3.914z"></path>
  </svg>
  <svg id="icon-stats-bars" width="20" height="20" viewBox="0 0 20 20" x="216" y="44">
    <path d="M0 16.25h20v2.5h-20zM2.5 11.25h2.5v3.75h-2.5zM6.25 6.25h2.5v8.75h-2.5zM10 10h2.5v5h-2.5zM13.75 2.5h2.5v12.5h-2.5z"></path>
  </svg>
  <svg id="icon-video-camera" width="32" height="32" viewBox="0 0 32 32" x="0" y="80">
    <path d="M12 9c0-2.761 2.239-5 5-5s5 2.239 5 5c0 2.761-2.239 5-5 5s-5-2.239-5-5zM0 9c0-2.761 2.239-5 5-5s5 2.239 5 5c0 2.761-2.239 5-5 5s-5-2.239-5-5zM24 19v-3c0-1.1-0.9-2-2-2h-20c-1.1 0-2 0.9-2 2v10c0 1.1 0.9 2 2 2h20c1.1 0 2-0.9 2-2v-3l8 5v-14l-8 5zM20 24h-16v-6h16v6z"></path>
  </svg>
  <svg id="icon-display" width="32" height="32" viewBox="0 0 32 32" x="48" y="80">
    <path d="M0 2v20h32v-20h-32zM30 20h-28v-16h28v16zM21 24h-10l-1 4-2 2h16l-2-2z"></path>
  </svg>
  <svg id="icon-bubble" width="32" height="32" viewBox="0 0 32 32" x="96" y="80">
    <path d="M16 2c8.837 0 16 5.82 16 13s-7.163 13-16 13c-0.849 0-1.682-0.054-2.495-0.158-3.437 3.437-7.539 4.053-11.505 4.144v-0.841c2.142-1.049 4-2.961 4-5.145 0-0.305-0.024-0.604-0.068-0.897-3.619-2.383-5.932-6.024-5.932-10.103 0-7.18 7.163-13 16-13z"></path>
  </svg>
  <svg id="icon-bubbles2" width="36" height="32" viewBox="0 0 36 32" x="144" y="80">
    <path d="M15 0v0c8.284 0 15 5.435 15 12.139s-6.716 12.139-15 12.139c-0.796 0-1.576-0.051-2.339-0.147-3.222 3.209-6.943 3.785-10.661 3.869v-0.785c2.008-0.98 3.625-2.765 3.625-4.804 0-0.285-0.022-0.564-0.063-0.837-3.392-2.225-5.562-5.625-5.562-9.434 0-6.704 6.716-12.139 15-12.139zM31.125 27.209c0 1.748 1.135 3.278 2.875 4.118v0.673c-3.223-0.072-6.181-0.566-8.973-3.316-0.661 0.083-1.337 0.126-2.027 0.126-2.983 0-5.732-0.805-7.925-2.157 4.521-0.016 8.789-1.464 12.026-4.084 1.631-1.32 2.919-2.87 3.825-4.605 0.961-1.84 1.449-3.799 1.449-5.825 0-0.326-0.014-0.651-0.039-0.974 2.268 1.873 3.664 4.426 3.664 7.24 0 3.265-1.88 6.179-4.82 8.086-0.036 0.234-0.055 0.474-0.055 0.718z"></path>
  </svg>
  <svg id="icon-users" width="36" height="32" viewBox="0 0 36 32" x="192" y="80">
    <path d="M24 24.082v-1.649c2.203-1.241 4-4.337 4-7.432 0-4.971 0-9-6-9s-6 4.029-6 9c0 3.096 1.797 6.191 4 7.432v1.649c-6.784 0.555-12 3.888-12 7.918h28c0-4.030-5.216-7.364-12-7.918z"></path>
    <path d="M10.225 24.854c1.728-1.13 3.877-1.989 6.243-2.513-0.47-0.556-0.897-1.176-1.265-1.844-0.95-1.726-1.453-3.627-1.453-5.497 0-2.689 0-5.228 0.956-7.305 0.928-2.016 2.598-3.265 4.976-3.734-0.529-2.39-1.936-3.961-5.682-3.961-6 0-6 4.029-6 9 0 3.096 1.797 6.191 4 7.432v1.649c-6.784 0.555-12 3.888-12 7.918h8.719c0.454-0.403 0.956-0.787 1.506-1.146z"></path>
  </svg>
  <svg id="icon-pie-chart" width="32" height="32" viewBox="0 0 32 32" x="240" y="80">
    <path d="M14 18v-14c-7.732 0-14 6.268-14 14s6.268 14 14 14 14-6.268 14-14c0-2.251-0.532-4.378-1.476-6.262l-12.524 6.262zM28.524 7.738c-2.299-4.588-7.043-7.738-12.524-7.738v14l12.524-6.262z"></path>
  </svg>
  <svg id="icon-stats-bars" width="32" height="32" viewBox="0 0 32 32" x="288" y="80">
    <path d="M0 26h32v4h-32zM4 18h4v6h-4zM10 10h4v14h-4zM16 16h4v8h-4zM22 4h4v20h-4z"></path>
  </svg>
  <svg id="icon-enter" width="32" height="32" viewBox="0 0 32 32" x="336" y="80">
    <path d="M12 16h-10v-4h10v-4l6 6-6 6zM32 0v26l-12 6v-6h-12v-8h2v6h10v-18l8-4h-18v8h-2v-10z"></path>
  </svg>
  <svg id="icon-exit" width="32" height="32" viewBox="0 0 32 32" x="384" y="80">
    <path d="M24 20v-4h-10v-4h10v-4l6 6zM22 18v8h-10v6l-12-6v-26h22v10h-2v-8h-16l8 4v18h8v-6z"></path>
  </svg>
  <svg id="icon-skype" width="32" height="32" viewBox="0 0 32 32" x="432" y="80">
    <path d="M13.3 1.169c-0.050-0.031-0.106-0.056-0.156-0.081-0.056 0.012-0.106 0.019-0.162 0.031l0.319 0.050z"></path>
    <path d="M1.15 13.156c-0.012 0.056-0.019 0.113-0.025 0.162 0.031 0.050 0.050 0.1 0.081 0.15l-0.056-0.313z"></path>
    <path d="M30.837 18.831c0.012-0.056 0.019-0.113 0.031-0.169-0.031-0.050-0.050-0.1-0.081-0.15l0.050 0.319z"></path>
    <path d="M18.5 30.719c0.050 0.031 0.106 0.056 0.156 0.081 0.056-0.012 0.113-0.019 0.169-0.025l-0.325-0.056z"></path>
    <path d="M30.869 18.663c-0.012 0.056-0.019 0.113-0.031 0.169l-0.056-0.325c0.031 0.056 0.056 0.106 0.087 0.156 0.163-0.9 0.25-1.819 0.25-2.738 0-2.037-0.4-4.019-1.188-5.881-0.762-1.8-1.85-3.419-3.238-4.806s-3.006-2.475-4.8-3.237c-1.863-0.788-3.844-1.188-5.881-1.188-0.963 0-1.925 0.088-2.863 0.269 0 0-0.006 0-0.006 0 0.050 0.025 0.106 0.050 0.156 0.081l-0.319-0.050c0.056-0.012 0.106-0.019 0.162-0.031-1.287-0.681-2.731-1.050-4.194-1.050-2.388 0-4.638 0.931-6.325 2.619s-2.619 3.937-2.619 6.325c0 1.519 0.394 3.019 1.125 4.338 0.012-0.056 0.019-0.113 0.025-0.162l0.056 0.319c-0.031-0.050-0.056-0.1-0.081-0.15-0.15 0.856-0.225 1.731-0.225 2.606 0 2.038 0.4 4.019 1.188 5.881 0.763 1.8 1.85 3.413 3.237 4.8s3.006 2.475 4.806 3.238c1.863 0.788 3.844 1.188 5.881 1.188 0.887 0 1.775-0.081 2.644-0.238-0.050-0.031-0.1-0.056-0.156-0.081l0.325 0.056c-0.056 0.012-0.113 0.019-0.169 0.025 1.337 0.756 2.856 1.163 4.4 1.163 2.387 0 4.637-0.931 6.325-2.619s2.619-3.938 2.619-6.325c-0.006-1.519-0.4-3.019-1.137-4.35zM16.069 25.181c-5.369 0-7.769-2.637-7.769-4.619 0-1.012 0.75-1.725 1.781-1.725 2.3 0 1.7 3.3 5.988 3.3 2.194 0 3.406-1.194 3.406-2.413 0-0.731-0.363-1.544-1.806-1.9l-4.775-1.194c-3.844-0.963-4.544-3.044-4.544-5 0-4.056 3.819-5.581 7.406-5.581 3.306 0 7.2 1.825 7.2 4.263 0 1.044-0.906 1.65-1.938 1.65-1.962 0-1.6-2.713-5.55-2.713-1.963 0-3.044 0.887-3.044 2.156s1.55 1.675 2.894 1.981l3.538 0.787c3.869 0.863 4.85 3.125 4.85 5.25 0 3.294-2.531 5.756-7.637 5.756z"></path>
  </svg>
  <svg id="icon-clock" width="32" height="32" viewBox="0 0 32 32" x="480" y="80">
    <path d="M20.586 23.414l-6.586-6.586v-8.828h4v7.172l5.414 5.414zM16 0c-8.837 0-16 7.163-16 16s7.163 16 16 16 16-7.163 16-16-7.163-16-16-16zM16 28c-6.627 0-12-5.373-12-12s5.373-12 12-12c6.627 0 12 5.373 12 12s-5.373 12-12 12z"></path>
  </svg>
  <svg id="icon-clock2" width="32" height="32" viewBox="0 0 32 32" x="528" y="80">
    <path d="M16 0c-8.837 0-16 7.163-16 16s7.163 16 16 16 16-7.163 16-16-7.163-16-16-16zM20.586 23.414l-6.586-6.586v-8.828h4v7.172l5.414 5.414-2.829 2.829z"></path>
  </svg>
  <svg id="icon-calendar1" width="32" height="32" viewBox="0 0 32 32" x="576" y="80">
    <path d="M10 12h4v4h-4zM16 12h4v4h-4zM22 12h4v4h-4zM4 24h4v4h-4zM10 24h4v4h-4zM16 24h4v4h-4zM10 18h4v4h-4zM16 18h4v4h-4zM22 18h4v4h-4zM4 18h4v4h-4zM26 0v2h-4v-2h-14v2h-4v-2h-4v32h30v-32h-4zM28 30h-26v-22h26v22z"></path>
  </svg>
  <svg id="icon-plus" width="32" height="32" viewBox="0 0 32 32" x="624" y="80">
    <path d="M31 12h-11v-11c0-0.552-0.448-1-1-1h-6c-0.552 0-1 0.448-1 1v11h-11c-0.552 0-1 0.448-1 1v6c0 0.552 0.448 1 1 1h11v11c0 0.552 0.448 1 1 1h6c0.552 0 1-0.448 1-1v-11h11c0.552 0 1-0.448 1-1v-6c0-0.552-0.448-1-1-1z"></path>
  </svg>
  <svg id="icon-settings" height="48px" version="1.1" viewBox="0 0 48 48" width="48px">
    <g>
      <g>
        <g>
          <path d="M26,48h-4c-1.654,0-3-1.346-3-3v-3.724c-1.28-0.37-2.512-0.881-3.681-1.527l-2.634,2.635     c-1.134,1.134-3.109,1.132-4.243,0l-2.829-2.828c-0.567-0.566-0.879-1.32-0.879-2.121s0.312-1.555,0.879-2.121l2.635-2.636     c-0.645-1.166-1.156-2.398-1.525-3.679H3c-1.654,0-3-1.346-3-3v-4c0-0.802,0.312-1.555,0.878-2.121     c0.567-0.566,1.32-0.879,2.122-0.879h3.724c0.37-1.278,0.88-2.511,1.526-3.679l-2.634-2.635c-1.17-1.17-1.17-3.072,0-4.242     l2.828-2.829c1.133-1.132,3.109-1.134,4.243,0l2.635,2.635C16.49,7.604,17.722,7.093,19,6.724V3c0-1.654,1.346-3,3-3h4     c1.654,0,3,1.346,3,3v3.724c1.28,0.37,2.512,0.881,3.678,1.525l2.635-2.635c1.134-1.132,3.109-1.134,4.243,0l2.829,2.828     c0.567,0.566,0.879,1.32,0.879,2.121s-0.312,1.555-0.879,2.121l-2.634,2.635c0.646,1.168,1.157,2.4,1.526,3.68H45     c1.654,0,3,1.346,3,3v4c0,0.802-0.312,1.555-0.878,2.121s-1.32,0.879-2.122,0.879h-3.724c-0.37,1.28-0.881,2.513-1.526,3.68     l2.634,2.635c1.17,1.17,1.17,3.072,0,4.242l-2.828,2.829c-1.134,1.133-3.109,1.133-4.243,0L32.68,39.75     c-1.168,0.646-2.401,1.156-3.679,1.526V45C29,46.654,27.655,48,26,48z M15.157,37.498c0.179,0,0.36,0.048,0.521,0.146     c1.416,0.866,2.949,1.502,4.557,1.891C20.684,39.644,21,40.045,21,40.507V45c0,0.552,0.449,1,1,1h4c0.551,0,1-0.448,1-1v-4.493     c0-0.462,0.316-0.863,0.765-0.972c1.606-0.389,3.139-1.023,4.556-1.89c0.396-0.241,0.902-0.18,1.229,0.146l3.178,3.179     c0.375,0.374,1.039,0.376,1.415,0l2.828-2.829c0.39-0.39,0.39-1.024,0-1.414l-3.179-3.179c-0.327-0.326-0.387-0.835-0.146-1.229     c0.865-1.414,1.5-2.947,1.889-4.556c0.108-0.449,0.51-0.766,0.972-0.766H45c0.267,0,0.519-0.104,0.708-0.293     C45.896,26.518,46,26.267,46,25.999v-4c0-0.552-0.449-1-1-1h-4.493c-0.462,0-0.864-0.316-0.972-0.766     c-0.388-1.607-1.023-3.14-1.889-4.556c-0.241-0.394-0.181-0.901,0.146-1.229l3.179-3.179c0.186-0.187,0.293-0.444,0.293-0.707     s-0.107-0.521-0.293-0.707l-2.829-2.828c-0.378-0.377-1.037-0.377-1.415,0l-3.179,3.179c-0.326,0.328-0.833,0.389-1.229,0.146     c-1.413-0.864-2.945-1.5-4.554-1.889C27.317,8.356,27,7.955,27,7.493V3c0-0.552-0.449-1-1-1h-4c-0.551,0-1,0.448-1,1v4.493     c0,0.462-0.316,0.863-0.765,0.972c-1.606,0.388-3.139,1.023-4.556,1.889c-0.395,0.241-0.902,0.181-1.228-0.146l-3.179-3.179     c-0.378-0.377-1.037-0.377-1.415,0L7.03,9.857c-0.39,0.39-0.39,1.024,0,1.414l3.179,3.179c0.327,0.326,0.387,0.835,0.146,1.229     c-0.866,1.416-1.501,2.949-1.889,4.555c-0.108,0.449-0.51,0.766-0.972,0.766H3c-0.267,0-0.519,0.104-0.708,0.293     C2.104,21.48,2,21.731,2,21.999v4c0,0.552,0.449,1,1,1h4.493c0.462,0,0.864,0.316,0.972,0.766     c0.389,1.608,1.024,3.141,1.889,4.555c0.241,0.394,0.181,0.901-0.146,1.229l-3.179,3.18c-0.186,0.187-0.293,0.444-0.293,0.707     s0.107,0.521,0.293,0.707l2.829,2.828c0.377,0.377,1.037,0.377,1.415,0l3.178-3.179C14.643,37.598,14.898,37.498,15.157,37.498z"/>
        </g>
        <g>
          <path d="M24,34c-5.514,0-10-4.486-10-10s4.486-10,10-10s10,4.486,10,10S29.515,34,24,34z M24,16c-4.411,0-8,3.589-8,8     s3.589,8,8,8s8-3.589,8-8S28.412,16,24,16z"/>
        </g>
      </g>
    </g>
  </svg>
</svg>
